<?xml version="1.0" standalone="no"?>
<!DOCTYPE svg PUBLIC "-//W3C//DTD SVG 20010904//EN"
 "http://www.w3.org/TR/2001/REC-SVG-20010904/DTD/svg10.dtd">
<svg version="1.0" xmlns="http://www.w3.org/2000/svg"
 width="512.000000pt" height="512.000000pt" viewBox="0 0 512.000000 512.000000"
 preserveAspectRatio="xMidYMid meet">

<g transform="translate(0.000000,512.000000) scale(0.100000,-0.100000)"
fill="#000000" stroke="none">
<path d="M2423 5069 c-516 -33 -1009 -225 -1412 -549 -104 -84 -290 -268 -368
-365 -282 -348 -455 -735 -534 -1190 -27 -158 -36 -467 -19 -642 76 -781 529
-1498 1198 -1900 886 -532 2004 -470 2822 157 369 283 661 677 823 1110 170
454 203 980 91 1450 -175 739 -671 1357 -1352 1686 -221 107 -438 175 -697
219 -73 12 -407 38 -425 33 -3 0 -60 -4 -127 -9z m404 -1190 c82 -30 122 -108
123 -231 0 -52 4 -88 10 -88 7 0 10 -200 10 -580 l0 -580 187 160 186 160 364
0 363 0 0 -520 0 -520 -1485 0 -1485 0 0 940 0 940 205 0 205 0 0 90 c0 130
26 185 105 221 37 17 78 19 612 19 380 0 581 -4 600 -11z m1254 -138 c26 -31
24 -57 -6 -86 l-24 -25 -414 0 c-404 0 -415 1 -441 21 -39 31 -30 90 17 109
12 5 208 8 435 7 l414 -2 19 -24z m-6 -306 c29 -28 31 -51 9 -83 l-15 -22
-434 0 -434 0 -15 22 c-23 33 -19 64 10 87 26 20 37 21 441 21 l414 0 24 -25z
m-453 -332 c22 -20 23 -41 1 -65 -15 -16 -35 -18 -219 -18 l-204 0 -16 25
c-15 23 -15 27 0 50 l16 25 202 0 c173 0 204 -2 220 -17z m976 -1581 c3 -31 1
-34 -62 -62 l-66 -30 -1874 0 c-2008 0 -1924 -2 -1978 47 -18 16 -25 63 -11
76 3 4 902 6 1997 5 l1991 -3 3 -33z"/>
<path d="M1860 3503 c-40 -14 -55 -89 -26 -129 14 -18 30 -19 431 -19 401 0
417 1 431 19 18 25 18 87 0 112 -14 18 -31 19 -418 21 -222 1 -410 -1 -418 -4z"/>
<path d="M1842 3184 c-17 -12 -22 -25 -22 -58 0 -79 -18 -76 448 -76 463 0
442 -4 442 75 0 77 12 75 -445 75 -346 0 -404 -2 -423 -16z"/>
<path d="M1824 2910 c-11 -4 -27 -22 -34 -39 -16 -39 2 -88 37 -102 32 -12
345 -12 376 0 14 6 29 23 35 40 14 41 -2 89 -35 102 -30 11 -350 11 -379 -1z"/>
</g>
</svg>
